HIERARCHY
ROOT Joint0
{
  OFFSET 0.0000 0.0000 1.0000
  CHANNELS 6 Xposition Yposition Zposition Zrotation Xrotation Yrotation
  JOINT Joint1
  {
    OFFSET 0.0811 -0.0899 -0.0114
    CHANNELS 3 Zrotation Xrotation Yrotation
    JOINT Joint4
    {
      OFFSET 0.0297 -0.3677 -0.0039
      CHANNELS 3 Zrotation Xrotation Yrotation
      JOINT Joint7
      {
        OFFSET -0.0120 -0.3841 -0.0490
        CHANNELS 3 Zrotation Xrotation Yrotation
        JOINT Joint10
        {
          OFFSET 0.0247 -0.0555 0.1226
          CHANNELS 3 Zrotation Xrotation Yrotation
          End Site
          {
            OFFSET 0.0247 -0.0555 0.1226
          }
        }
      }
    }
  }
  JOINT Joint2
  {
    OFFSET -0.0773 -0.0878 -0.0084
    CHANNELS 3 Zrotation Xrotation Yrotation
    JOINT Joint5
    {
      OFFSET -0.0344 -0.3716 -0.0062
      CHANNELS 3 Zrotation Xrotation Yrotation
      JOINT Joint8
      {
        OFFSET 0.0139 -0.3835 -0.0484
        CHANNELS 3 Zrotation Xrotation Yrotation
        JOINT Joint11
        {
          OFFSET -0.0293 -0.0469 0.1263
          CHANNELS 3 Zrotation Xrotation Yrotation
          End Site
          {
            OFFSET -0.0293 -0.0469 0.1263
          }
        }
      }
    }
  }
  JOINT Joint3
  {
    OFFSET -0.0027 0.1037 -0.0232
    CHANNELS 3 Zrotation Xrotation Yrotation
    JOINT Joint6
    {
      OFFSET 0.0030 0.1296 -0.0027
      CHANNELS 3 Zrotation Xrotation Yrotation
      JOINT Joint9
      {
        OFFSET 0.0015 0.0533 0.0332
        CHANNELS 3 Zrotation Xrotation Yrotation
        JOINT Joint12
        {
          OFFSET -0.0004 0.2283 -0.0600
          CHANNELS 3 Zrotation Xrotation Yrotation
          JOINT Joint15
          {
            OFFSET 0.0048 0.0641 0.0558
            CHANNELS 3 Zrotation Xrotation Yrotation
            End Site
            {
              OFFSET 0.0048 0.0641 0.0558
            }
          }
        }
        JOINT Joint13
        {
          OFFSET 0.0787 0.1275 -0.0430
          CHANNELS 3 Zrotation Xrotation Yrotation
          JOINT Joint16
          {
            OFFSET 0.0914 0.0355 -0.0086
            CHANNELS 3 Zrotation Xrotation Yrotation
            JOINT Joint18
            {
              OFFSET 0.2512 -0.0141 -0.0294
              CHANNELS 3 Zrotation Xrotation Yrotation
              JOINT Joint20
              {
                OFFSET 0.2431 0.0092 0.0027
                CHANNELS 3 Zrotation Xrotation Yrotation
                JOINT Joint22
                {
                  OFFSET 0.1053 -0.0108 0.0234
                  CHANNELS 3 Zrotation Xrotation Yrotation
                  JOINT Joint23
                  {
                    OFFSET 0.0332 0.0042 0.0030
                    CHANNELS 3 Zrotation Xrotation Yrotation
                    JOINT Joint24
                    {
                      OFFSET 0.0234 -0.0009 0.0005
                      CHANNELS 3 Zrotation Xrotation Yrotation
                      End Site
                      {
                        OFFSET 0.0234 -0.0009 0.0005
                      }
                    }
                  }
                }
                JOINT Joint25
                {
                  OFFSET 0.1126 -0.0078 -0.0002
                  CHANNELS 3 Zrotation Xrotation Yrotation
                  JOINT Joint26
                  {
                    OFFSET 0.0317 0.0021 -0.0047
                    CHANNELS 3 Zrotation Xrotation Yrotation
                    JOINT Joint27
                    {
                      OFFSET 0.0246 -0.0008 -0.0039
                      CHANNELS 3 Zrotation Xrotation Yrotation
                      End Site
                      {
                        OFFSET 0.0246 -0.0008 -0.0039
                      }
                    }
                  }
                }
                JOINT Joint28
                {
                  OFFSET 0.0860 -0.0168 -0.0403
                  CHANNELS 3 Zrotation Xrotation Yrotation
                  JOINT Joint29
                  {
                    OFFSET 0.0158 -0.0006 -0.0114
                    CHANNELS 3 Zrotation Xrotation Yrotation
                    JOINT Joint30
                    {
                      OFFSET 0.0161 -0.0011 -0.0109
                      CHANNELS 3 Zrotation Xrotation Yrotation
                      End Site
                      {
                        OFFSET 0.0161 -0.0011 -0.0109
                      }
                    }
                  }
                }
                JOINT Joint31
                {
                  OFFSET 0.0999 -0.0111 -0.0238
                  CHANNELS 3 Zrotation Xrotation Yrotation
                  JOINT Joint32
                  {
                    OFFSET 0.0286 0.0023 -0.0053
                    CHANNELS 3 Zrotation Xrotation Yrotation
                    JOINT Joint33
                    {
                      OFFSET 0.0234 -0.0009 -0.0074
                      CHANNELS 3 Zrotation Xrotation Yrotation
                      End Site
                      {
                        OFFSET 0.0234 -0.0009 -0.0074
                      }
                    }
                  }
                }
                JOINT Joint34
                {
                  OFFSET 0.0426 -0.0219 0.0277
                  CHANNELS 3 Zrotation Xrotation Yrotation
                  JOINT Joint35
                  {
                    OFFSET 0.0185 0.0008 0.0246
                    CHANNELS 3 Zrotation Xrotation Yrotation
                    JOINT Joint36
                    {
                      OFFSET 0.0221 -0.0048 0.0152
                      CHANNELS 3 Zrotation Xrotation Yrotation
                      End Site
                      {
                        OFFSET 0.0221 -0.0048 0.0152
                      }
                    }
                  }
                }
              }
            }
          }
        }
        JOINT Joint14
        {
          OFFSET -0.0815 0.1251 -0.0492
          CHANNELS 3 Zrotation Xrotation Yrotation
          JOINT Joint17
          {
            OFFSET -0.0975 0.0385 -0.0099
            CHANNELS 3 Zrotation Xrotation Yrotation
            JOINT Joint19
            {
              OFFSET -0.2546 -0.0159 -0.0229
              CHANNELS 3 Zrotation Xrotation Yrotation
              JOINT Joint21
              {
                OFFSET -0.2519 0.0079 0.0007
                CHANNELS 3 Zrotation Xrotation Yrotation
                JOINT Joint37
                {
                  OFFSET -0.1043 -0.0103 0.0246
                  CHANNELS 3 Zrotation Xrotation Yrotation
                  JOINT Joint38
                  {
                    OFFSET -0.0341 0.0034 0.0025
                    CHANNELS 3 Zrotation Xrotation Yrotation
                    JOINT Joint39
                    {
                      OFFSET -0.0236 -0.0015 -0.0003
                      CHANNELS 3 Zrotation Xrotation Yrotation
                      End Site
                      {
                        OFFSET -0.0236 -0.0015 -0.0003
                      }
                    }
                  }
                }
                JOINT Joint40
                {
                  OFFSET -0.1123 -0.0074 -0.0003
                  CHANNELS 3 Zrotation Xrotation Yrotation
                  JOINT Joint41
                  {
                    OFFSET -0.0322 0.0016 -0.0048
                    CHANNELS 3 Zrotation Xrotation Yrotation
                    JOINT Joint42
                    {
                      OFFSET -0.0245 -0.0012 -0.0045
                      CHANNELS 3 Zrotation Xrotation Yrotation
                      End Site
                      {
                        OFFSET -0.0245 -0.0012 -0.0045
                      }
                    }
                  }
                }
                JOINT Joint43
                {
                  OFFSET -0.0863 -0.0161 -0.0419
                  CHANNELS 3 Zrotation Xrotation Yrotation
                  JOINT Joint44
                  {
                    OFFSET -0.0162 -0.0001 -0.0120
                    CHANNELS 3 Zrotation Xrotation Yrotation
                    JOINT Joint45
                    {
                      OFFSET -0.0165 -0.0007 -0.0110
                      CHANNELS 3 Zrotation Xrotation Yrotation
                      End Site
                      {
                        OFFSET -0.0165 -0.0007 -0.0110
                      }
                    }
                  }
                }
                JOINT Joint46
                {
                  OFFSET -0.0999 -0.0107 -0.0248
                  CHANNELS 3 Zrotation Xrotation Yrotation
                  JOINT Joint47
                  {
                    OFFSET -0.0290 0.0016 -0.0050
                    CHANNELS 3 Zrotation Xrotation Yrotation
                    JOINT Joint48
                    {
                      OFFSET -0.0236 -0.0012 -0.0076
                      CHANNELS 3 Zrotation Xrotation Yrotation
                      End Site
                      {
                        OFFSET -0.0236 -0.0012 -0.0076
                      }
                    }
                  }
                }
                JOINT Joint49
                {
                  OFFSET -0.0397 -0.0214 0.0306
                  CHANNELS 3 Zrotation Xrotation Yrotation
                  JOINT Joint50
                  {
                    OFFSET -0.0191 0.0007 0.0247
                    CHANNELS 3 Zrotation Xrotation Yrotation
                    JOINT Joint51
                    {
                      OFFSET -0.0231 -0.0056 0.0141
                      CHANNELS 3 Zrotation Xrotation Yrotation
                      End Site
                      {
                        OFFSET -0.0231 -0.0056 0.0141
                      }
                    }
                  }
                }
              }
            }
          }
        }
      }
    }
  }
}
MOTION
Frames: 5
Frame Time: 0.0333
0.0000 0.0000 0.0000 92.0320 87.7872 -1.5015 1.1495 3.7973 1.0492 -2.5874 4.6786 -8.9076 3.8606 -10.7944 6.5538 0.0000 0.0000 0.0000 -0.6932 -1.1369 -1.1886 0.1733 14.0880 -0.0011 1.9700 -11.3296 -7.9648 0.0000 0.0000 0.0000 0.3798 10.0105 -1.0703 1.1813 -4.9866 -1.2340 -0.2517 -0.9784 -2.9120 3.2114 -10.7646 2.2827 -2.0554 12.8791 -5.4685 -27.9637 0.3066 8.2083 -53.8724 9.9263 -5.3563 10.4662 9.6646 -28.0248 -5.0737 -4.5007 -4.4305 -24.0738 5.7061 3.7140 -43.3124 7.0195 -1.1858 -11.0629 -4.9918 -5.7123 -30.3189 -7.2093 1.0370 -40.4542 -8.6380 0.1210 -19.3843 -0.1920 -5.3744 -40.1428 -20.5934 -19.4386 -29.8046 -10.8081 -6.7641 -5.4446 -21.0010 -4.5092 -36.8726 -6.0602 -7.1223 -37.6129 -15.1557 -8.6470 -22.1659 -8.4174 -9.3293 -16.0939 46.7949 23.9080 3.7329 -28.5753 2.5054 -18.3193 29.8224 7.6334 31.3789 -3.5551 -1.5483 51.0010 14.8640 6.0677 -8.3553 -6.2793 20.1522 7.7227 -5.9781 3.1208 24.0738 5.7061 -3.7140 43.3124 7.0195 1.1858 11.0629 -4.9918 5.7123 30.3189 -7.2093 -1.0370 40.4542 -8.6380 -0.1210 19.3843 -0.1920 5.3744 40.1428 -20.5934 19.4386 29.8046 -10.8081 6.7641 5.4446 -21.0010 4.5092 36.8726 -6.0602 7.1223 37.6129 -15.1557 8.6470 22.1659 -8.4174 9.3293 16.0939 46.7949 -23.9080 -3.7329 -28.5753 -2.5054 18.3193 29.8224 -7.6334
0.0000 0.0000 0.0000 91.1893 87.8026 -0.5328 1.2053 3.8073 1.1001 -2.6140 4.6443 -8.9411 3.8553 -10.7549 6.4765 0.0000 0.0000 0.0000 -0.6584 -1.0945 -1.3177 0.1587 14.0506 -0.0408 1.9453 -11.3273 -8.0045 0.0000 0.0000 0.0000 0.2655 9.9021 -0.9902 1.2557 -4.8299 -1.1390 -0.1482 -0.9922 -2.8076 3.1226 -10.7535 2.1246 -2.0699 12.7647 -5.5770 -28.0241 0.4452 8.1896 -53.9786 9.9449 -5.2172 10.6365 9.7224 -28.2536 -5.0740 -4.5703 -4.5051 -24.0738 5.7061 3.7140 -43.3124 7.0195 -1.1858 -11.0629 -4.9918 -5.7123 -30.3189 -7.2093 1.0370 -40.4542 -8.6380 0.1210 -19.3843 -0.1920 -5.3744 -40.1428 -20.5934 -19.4386 -29.8046 -10.8081 -6.7641 -5.4446 -21.0010 -4.5092 -36.8726 -6.0602 -7.1223 -37.6129 -15.1557 -8.6470 -22.1659 -8.4174 -9.3293 -16.0939 46.7949 23.9080 3.7329 -28.5753 2.5054 -18.3193 29.8224 7.6334 31.3286 -3.3056 -1.5702 51.0396 14.8375 5.7131 -8.4403 -6.1548 20.1741 7.6834 -5.9913 3.3176 24.0738 5.7061 -3.7140 43.3124 7.0195 1.1858 11.0629 -4.9918 5.7123 30.3189 -7.2093 -1.0370 40.4542 -8.6380 -0.1210 19.3843 -0.1920 5.3744 40.1428 -20.5934 19.4386 29.8046 -10.8081 6.7641 5.4446 -21.0010 4.5092 36.8726 -6.0602 7.1223 37.6129 -15.1557 8.6470 22.1659 -8.4174 9.3293 16.0939 46.7949 -23.9080 -3.7329 -28.5753 -2.5054 18.3193 29.8224 -7.6334
0.0000 0.0000 0.0000 91.9553 87.8420 -1.1952 1.1364 3.7788 1.1395 -2.6045 4.6648 -9.0691 3.8728 -10.8438 6.4983 0.0000 0.0000 0.0000 -0.7103 -1.1229 -1.4492 0.1369 14.0813 0.1784 1.9168 -11.4181 -8.0369 0.0000 0.0000 0.0000 0.1804 9.6524 -0.9477 1.2679 -4.6609 -1.0816 -0.0959 -0.8929 -2.7126 2.9705 -10.6666 1.9834 -1.9221 12.5928 -5.7416 -27.8599 0.3753 8.0369 -54.2937 9.9409 -5.0367 10.0802 9.4685 -27.0535 -4.5719 -5.8112 -4.8731 -24.0738 5.7061 3.7140 -43.3124 7.0195 -1.1858 -11.0629 -4.9918 -5.7123 -30.3189 -7.2093 1.0370 -40.4542 -8.6380 0.1210 -19.3843 -0.1920 -5.3744 -40.1428 -20.5934 -19.4386 -29.8046 -10.8081 -6.7641 -5.4446 -21.0010 -4.5092 -36.8726 -6.0602 -7.1223 -37.6129 -15.1557 -8.6470 -22.1659 -8.4174 -9.3293 -16.0939 46.7949 23.9080 3.7329 -28.5753 2.5054 -18.3193 29.8224 7.6334 31.3360 -3.0549 -1.5234 51.0002 14.7944 5.7858 -8.4453 -6.0950 19.7621 7.4869 -6.4354 3.4075 24.0738 5.7061 -3.7140 43.3124 7.0195 1.1858 11.0629 -4.9918 5.7123 30.3189 -7.2093 -1.0370 40.4542 -8.6380 -0.1210 19.3843 -0.1920 5.3744 40.1428 -20.5934 19.4386 29.8046 -10.8081 6.7641 5.4446 -21.0010 4.5092 36.8726 -6.0602 7.1223 37.6129 -15.1557 8.6470 22.1659 -8.4174 9.3293 16.0939 46.7949 -23.9080 -3.7329 -28.5753 -2.5054 18.3193 29.8224 -7.6334
0.0000 0.0000 0.0000 92.7444 87.8338 -1.7830 1.0964 3.7399 1.0310 -2.5982 4.7117 -9.0257 3.8597 -10.8369 6.3821 0.0000 0.0000 0.0000 -0.7495 -1.1678 -1.5897 0.0982 14.1822 -0.0604 2.0390 -11.4222 -7.8930 0.0000 0.0000 0.0000 0.1594 9.7553 -0.8635 1.2163 -4.5276 -1.0644 -0.1564 -0.9819 -2.7314 3.0493 -10.7569 1.9767 -1.9063 12.4923 -5.9186 -27.9726 0.4453 8.0616 -54.0308 9.8744 -5.0750 10.4831 9.3327 -28.0205 -5.0383 -4.6257 -4.5889 -24.0738 5.7061 3.7140 -43.3124 7.0195 -1.1858 -11.0629 -4.9918 -5.7123 -30.3189 -7.2093 1.0370 -40.4542 -8.6380 0.1210 -19.3843 -0.1920 -5.3744 -40.1428 -20.5934 -19.4386 -29.8046 -10.8081 -6.7641 -5.4446 -21.0010 -4.5092 -36.8726 -6.0602 -7.1223 -37.6129 -15.1557 -8.6470 -22.1659 -8.4174 -9.3293 -16.0939 46.7949 23.9080 3.7329 -28.5753 2.5054 -18.3193 29.8224 7.6334 31.3829 -3.1215 -1.4697 51.1695 14.6061 5.6397 -8.3199 -6.4735 19.6514 7.6113 -6.0411 2.9467 24.0738 5.7061 -3.7140 43.3124 7.0195 1.1858 11.0629 -4.9918 5.7123 30.3189 -7.2093 -1.0370 40.4542 -8.6380 -0.1210 19.3843 -0.1920 5.3744 40.1428 -20.5934 19.4386 29.8046 -10.8081 6.7641 5.4446 -21.0010 4.5092 36.8726 -6.0602 7.1223 37.6129 -15.1557 8.6470 22.1659 -8.4174 9.3293 16.0939 46.7949 -23.9080 -3.7329 -28.5753 -2.5054 18.3193 29.8224 -7.6334
0.0000 0.0000 0.0000 93.0469 87.8655 -1.8284 1.0883 3.6616 1.0114 -2.6101 4.7575 -9.2560 3.8830 -10.8367 6.3446 0.0000 0.0000 0.0000 -0.7480 -1.1718 -1.5746 0.1020 14.2112 -0.1116 2.0496 -11.4162 -8.1225 0.0000 0.0000 0.0000 0.0913 9.9285 -0.8071 1.1901 -4.7213 -1.0224 -0.1301 -0.9163 -2.7374 2.9895 -10.7180 1.8093 -1.9583 12.3254 -5.8959 -28.0242 0.4881 8.2069 -53.8498 9.8610 -5.0051 10.5237 9.4956 -28.2685 -4.9918 -4.6791 -4.2281 -24.0738 5.7061 3.7140 -43.3124 7.0195 -1.1858 -11.0629 -4.9918 -5.7123 -30.3189 -7.2093 1.0370 -40.4542 -8.6380 0.1210 -19.3843 -0.1920 -5.3744 -40.1428 -20.5934 -19.4386 -29.8046 -10.8081 -6.7641 -5.4446 -21.0010 -4.5092 -36.8726 -6.0602 -7.1223 -37.6129 -15.1557 -8.6470 -22.1659 -8.4174 -9.3293 -16.0939 46.7949 23.9080 3.7329 -28.5753 2.5054 -18.3193 29.8224 7.6334 31.4106 -3.1615 -1.5117 51.2460 14.5725 5.3173 -8.2447 -6.6204 19.7138 7.7267 -6.1866 3.0018 24.0738 5.7061 -3.7140 43.3124 7.0195 1.1858 11.0629 -4.9918 5.7123 30.3189 -7.2093 -1.0370 40.4542 -8.6380 -0.1210 19.3843 -0.1920 5.3744 40.1428 -20.5934 19.4386 29.8046 -10.8081 6.7641 5.4446 -21.0010 4.5092 36.8726 -6.0602 7.1223 37.6129 -15.1557 8.6470 22.1659 -8.4174 9.3293 16.0939 46.7949 -23.9080 -3.7329 -28.5753 -2.5054 18.3193 29.8224 -7.6334
